<svg xmlns="http://www.w3.org/2000/svg" viewBox="0 0 512 512"><g data-name="Musical Playgym"><path d="M149.333 277.333a64 64 0 1 1 64-64 64.07 64.07 0 0 1-64 64zm0-106.666A42.667 42.667 0 1 0 192 213.333a42.716 42.716 0 0 0-42.667-42.666z" style="fill:#f73478"/><path style="fill:#009fc2" d="M128 64h42.667v128H128z"/><path style="fill:#27b9d4" d="M128 149.333h42.667v21.333H128z"/><path d="M256 277.333a64 64 0 1 1 64-64 64.07 64.07 0 0 1-64 64zm0-106.666a42.667 42.667 0 1 0 42.667 42.666A42.716 42.716 0 0 0 256 170.667z" style="fill:#f9c450"/><path d="M362.667 277.333a64 64 0 1 1 64-64 64.07 64.07 0 0 1-64 64zm0-106.666a42.667 42.667 0 1 0 42.666 42.666 42.716 42.716 0 0 0-42.666-42.666z" style="fill:#009fc2"/><path style="fill:#f73478" d="M234.667 42.667h42.667V192h-42.667zM341.333 64H384v128h-42.667z"/><path style="fill:#f9578f" d="M234.667 149.333h42.667v21.333h-42.667zM341.333 149.333H384v21.333h-42.667z"/><path style="fill:#e41a67" d="M234.667 42.667h42.667v42.667h-42.667zM341.333 64H384v42.667h-42.667z"/><path style="fill:#0c87b6" d="M128 64h42.667v42.667H128z"/><path d="M490.667 256H448c0-105.865-86.125-192-192-192S64 150.135 64 256H21.333C21.333 126.604 126.604 21.333 256 21.333S490.667 126.604 490.667 256z" style="fill:#f9578f"/><path d="M469.333 256H448c0-105.865-86.125-192-192-192S64 150.135 64 256H42.667c0-117.635 95.708-213.333 213.333-213.333S469.333 138.365 469.333 256z" style="fill:#f73478"/><path d="M64 256H21.333a236.25 236.25 0 0 1 4.646-46.656l41.834 8.458A191.96 191.96 0 0 0 64 256z" style="fill:#ebad1e"/><path d="m61.23 125.073 35.374 23.833a192.4 192.4 0 0 1 52.938-52.74l-23.667-35.478a234.075 234.075 0 0 0-64.646 64.385z" style="fill:#27b9d4"/><path d="m79.061 137.087 17.543 11.82c.477-.708 1.037-1.34 1.521-2.039 2.227-3.214 4.586-6.312 6.997-9.378 1.413-1.797 2.799-3.615 4.271-5.357 2.426-2.867 4.985-5.6 7.57-8.318 1.669-1.755 3.297-3.543 5.03-5.233 2.639-2.572 5.412-4.983 8.192-7.4 1.842-1.6 3.63-3.252 5.535-4.784 2.93-2.356 5.999-4.528 9.066-6.712 1.61-1.147 3.107-2.418 4.756-3.52l-11.776-17.653a213.87 213.87 0 0 0-58.705 58.574z" style="fill:#009fc2"/><path d="m210.27 25.792 8.25 41.854a195.94 195.94 0 0 1 74.75-.042l8.25-41.854a237.18 237.18 0 0 0-91.25.042z" style="fill:#ebad1e"/><path d="M256 42.667a214.416 214.416 0 0 0-41.603 4.06l4.124 20.919c1.15-.227 2.332-.305 3.487-.51a181.653 181.653 0 0 1 63.642-.637c2.536.39 5.113.614 7.62 1.105l4.125-20.918A214.47 214.47 0 0 0 256 42.666z" style="fill:#d88d00"/><path d="m385.938 60.552-23.667 35.52a191.551 191.551 0 0 1 53 52.678l35.375-23.875a234.926 234.926 0 0 0-64.709-64.323z" style="fill:#fcafc9"/><path d="m374.056 78.385-11.785 17.688c1.243.827 2.364 1.792 3.586 2.644 3.561 2.491 7.097 5.008 10.479 7.73 1.707 1.373 3.306 2.862 4.962 4.289 2.956 2.55 5.897 5.105 8.693 7.83 1.654 1.611 3.204 3.32 4.8 4.993 2.667 2.791 5.304 5.602 7.8 8.553 1.388 1.642 2.692 3.36 4.026 5.05 2.531 3.204 5 6.446 7.327 9.812.422.61.911 1.16 1.327 1.776l17.55-11.845a213.907 213.907 0 0 0-58.765-58.52z" style="fill:#fb91b5"/><path d="M490.667 256H448a191.96 191.96 0 0 0-3.813-38.198l41.834-8.458A236.25 236.25 0 0 1 490.667 256z" style="fill:#27b9d4"/><path d="M128 384a63.225 63.225 0 0 1 79.969-61.746 85.334 85.334 0 1 0 0 123.492A63.225 63.225 0 0 1 128 384z" style="fill:#f9c450"/><path d="M167.52 465.76a85.352 85.352 0 0 1 0-163.52l6.126 20.437a64.015 64.015 0 0 0 0 122.646z" style="fill:#ebad1e"/><path style="fill:#27b9d4" d="M128 234.667h42.667V320H128z"/><path style="fill:#5bcade" d="M128 256h42.667v21.333H128z"/><path style="fill:#e41a67" d="M256 298.667 170.667 320 256 405.333 341.333 384 256 298.667z"/><path style="fill:#c2004f" d="M187.583 336.917 202.667 352 256 298.667l-40.223 10.056-28.194 28.194z"/><path transform="rotate(-45 256 384)" style="fill:#f73478" d="M195.66 323.66h120.68v120.68H195.66z"/><path style="fill:#f9578f" d="m193.292 391.542-15.084-15.084L256 298.667l64 64-15.083 15.083L256 328.833l-62.708 62.709z"/><path style="fill:#e41a67" d="M234.667 298.667h42.667v42.667h-42.667z"/><path style="fill:#d88d00" d="M106.667 320h42.667v21.333h-42.667z"/><path style="fill:#27b9d4" d="M234.667 234.667h42.667V320h-42.667z"/><path style="fill:#5bcade" d="M234.667 256h42.667v21.333h-42.667z"/><circle cx="362.667" cy="426.667" r="64" style="fill:#38395e"/><path d="M362.667 426.667a63.958 63.958 0 0 1 32-55.417 64 64 0 1 0 0 110.833 63.958 63.958 0 0 1-32-55.416z" style="fill:#4a4b6c"/><circle cx="320" cy="320" r="21.333" style="fill:#4a4b6c"/><circle cx="405.333" cy="320" r="21.333" style="fill:#4a4b6c"/><circle cx="362.667" cy="362.667" r="64" style="fill:#fde7b8"/><path d="M362.667 426.667v-21.334a42.667 42.667 0 0 0 0-85.333v-21.333a64 64 0 0 1 0 128z" style="fill:#fad47f"/><path style="fill:#fad47f" d="M341.333 298.667H384v42.667h-42.667z"/><ellipse cx="394.667" cy="352" rx="25.1" ry="37.65" transform="rotate(-45 394.667 352)" style="fill:#4a4b6c"/><path style="fill:#38395e" d="M362.667 320H384v21.333h-21.333z"/><circle cx="330.667" cy="352" r="10.667" style="fill:#4a4b6c"/><circle cx="394.667" cy="352" r="10.667" style="fill:#fde7b8"/><ellipse cx="362.667" cy="384" rx="42.667" ry="21.333" style="fill:#fef3dc"/><ellipse cx="362.667" cy="373.333" rx="21.333" ry="10.667" style="fill:#4a4b6c"/><path d="m362.667 440.889-50.998-50.998a20.113 20.113 0 0 0-28.445 0 20.113 20.113 0 0 0 0 28.444l50.998 50.998z" style="fill:#4a4b6c"/><path d="m298.093 403.47 13.577-13.578-.001-.001a20.114 20.114 0 0 0-28.445 0 20.113 20.113 0 0 0-.01 28.433c.004.004.011.005.015.01l43.459 43.458 15.083-15.084z" style="fill:#38395e"/><path d="M373.438 406.553h63.79a20.113 20.113 0 0 1 20.114 20.114 20.113 20.113 0 0 1-20.113 20.113h-63.791a20.113 20.113 0 0 1-20.113-20.113 20.113 20.113 0 0 1 20.113-20.114z" transform="rotate(-45 405.333 426.667)" style="fill:#4a4b6c"/><path d="M442.109 389.891a20.113 20.113 0 0 0-28.444 0l-.371.37 13.164 13.541-42.896 42.906 15.084 15.084.008-.002 43.455-43.455a20.113 20.113 0 0 0 0-28.444z" style="fill:#38395e"/><path d="M362.667 447.333A63.83 63.83 0 0 0 314.687 469a63.957 63.957 0 0 0 95.959 0 63.83 63.83 0 0 0-47.98-21.667z" style="fill:#fad47f"/><path d="M362.667 447.333a63.731 63.731 0 0 0-43.957 17.527 63.884 63.884 0 0 0 66.58-13.386 63.74 63.74 0 0 0-22.623-4.14z" style="fill:#fde7b8"/><path style="fill:#27b9d4" d="M341.333 234.667H384V320h-42.667z"/><path style="fill:#5bcade" d="M341.333 256H384v21.333h-42.667z"/><circle cx="256" cy="384" r="21.333" style="fill:#fde7b8"/></g></svg>